<?xml version="1.0" encoding="UTF-8" standalone="no"?>
<!-- Created with Inkscape (http://www.inkscape.org/) -->

<svg
   width="71.635971mm"
   height="71.636482mm"
   viewBox="0 0 71.635971 71.636482"
   version="1.1"
   id="svg1"
   xmlns="http://www.w3.org/2000/svg"
   xmlns:svg="http://www.w3.org/2000/svg">
  <defs
     id="defs1" />
  <g
     id="layer1"
     transform="translate(-72.69684,-124.33918)">
    <path
       id="path28"
       style="fill:#ffffff;stroke:#ffffff;stroke-width:0.253592;stroke-opacity:1"
       d="m 107.29164,124.36399 -2.56573,13.94075 c -2.62294,0.41253 -5.101616,1.23175 -7.35976,2.39365 l -8.594824,-8.82013 4.684468,11.34039 c 0.0012,-9.2e-4 0.0025,-0.002 0.0036,-0.003 -0.0012,9.2e-4 -0.0025,0.002 -0.0036,0.003 -1.614161,1.27991 -3.043618,2.76274 -4.25452,4.40334 l -11.572421,-4.15892 9.218042,8.15041 v 5.2e-4 c -1.036648,2.27205 -1.690859,4.73768 -1.892907,7.32462 l -12.232329,2.44171 12.373922,2.27738 v 5.1e-4 c 0.321585,2.30543 1.005038,4.5004 1.996777,6.53242 l -9.683129,8.47907 12.289689,-4.35012 h 5.16e-4 v 5.2e-4 c 1.245433,1.56586 2.70059,2.96915 4.323767,4.17855 l -4.886523,11.82925 9.083683,-9.32139 h 5.17e-4 c 2.094442,0.97512 4.360472,1.66601 6.744812,2.01693 l 2.5802,12.92686 2.33629,-12.69328 c 2.85371,-0.14356 5.57281,-0.76937 8.07186,-1.79162 h 5.2e-4 l 9.7038,9.95856 -5.13716,-12.43542 c 1.42358,-0.98449 2.72719,-2.11542 3.88814,-3.37085 v -5.2e-4 h 5.2e-4 l 12.67674,4.5558 -9.70122,-8.57726 c 1.41589,-2.43998 2.37016,-5.15556 2.75849,-8.04137 v -5.1e-4 l 12.16412,-2.42828 -12.03854,-2.21537 c -0.22677,-2.85608 -1.00269,-5.56532 -2.23708,-8.02741 l 9.29608,-8.14007 -11.83184,4.18785 -5.2e-4,-5.1e-4 c -1.26582,-1.58482 -2.7464,-3.00359 -4.39921,-4.22093 l 4.92683,-11.92744 -9.18135,9.42216 -5.2e-4,-5.1e-4 c -2.69733,-1.23145 -5.67718,-1.98846 -8.82065,-2.16421 z m -0.13074,10.95953 1.91151,9.69915 c 2.20145,0.12465 4.28839,0.66138 6.1774,1.53479 l 5.2e-4,5.2e-4 6.42958,-6.6828 -3.45043,8.45944 c 1.15749,0.86339 2.19445,1.87009 3.08094,2.99413 h 5.2e-4 l 8.28632,-2.97036 -6.51072,5.7738 c 0.86448,1.74625 1.40801,3.66751 1.56683,5.6932 l 8.43101,1.57148 -8.51886,1.72237 c -0.27197,2.04677 -0.94008,3.97296 -1.93166,5.70353 l 6.7939,6.08335 -8.87801,-3.23133 h -5.2e-4 v 5.2e-4 c -0.81304,0.89042 -1.72586,1.69229 -2.72283,2.39055 l 3.59771,8.82013 -6.79596,-7.06313 c -1.75014,0.72502 -3.65437,1.1689 -5.65289,1.27072 l -1.63659,9.00255 -1.80661,-9.16843 c -1.66982,-0.24889 -3.25694,-0.7388 -4.72374,-1.4304 h -5.2e-4 l -6.361369,6.61148 3.422014,-8.39018 c -1.136759,-0.85777 -2.156027,-1.85306 -3.028239,-2.96365 v -5.1e-4 l -8.60671,3.08559 6.780982,-6.0141 c -0.694544,-1.4412 -1.173151,-2.99767 -1.398365,-4.63279 v -5.2e-4 l -8.665621,-1.6154 8.566403,-1.73168 c 0.141499,-1.83478 0.600023,-3.58357 1.326017,-5.19503 l -6.455937,-5.78104 8.104415,2.94969 c 0.848029,-1.1636 1.84922,-2.21501 2.979663,-3.12281 l -3.28042,-8.04344 6.019267,6.25595 c 1.58144,-0.82408 3.31728,-1.40551 5.15421,-1.69809 z" />
  </g>
</svg>
